<?xml version="1.0" ?><svg id="Layer_1" style="enable-background:new 0 0 512 512;" version="1.1" viewBox="0 0 512 512" xml:space="preserve" xmlns="http://www.w3.org/2000/svg" xmlns:xlink="http://www.w3.org/1999/xlink"><style type="text/css">
	.st0{fill:#232323;}
	.st1{fill:#2E4356;}
	.st2{fill:#CCE134;}
	.st3{fill:#F4908C;}
	.st4{fill:#FBD502;}
</style><g><g><g><g><g><path class="st0" d="M50.5,240.1V139h411.1v101.1L50.5,240.1z M63.6,227h384.8v-74.9H63.6V227z"/></g><rect class="st1" height="53" id="XMLID_10_" width="363" x="74.5" y="163"/><g><path class="st0" d="M461.5,107.1H153.4V6h308.2V107.1z M166.5,94h281.9V19.1H166.5V94z"/></g><rect class="st2" height="53" id="XMLID_7_" width="260.1" x="177.4" y="30.1"/><g><path class="st0" d="M461.5,373H232.9V271.9h228.6V373z M246,359.9h202.4V285H246V359.9z"/></g><rect class="st3" height="53" id="XMLID_4_" width="180.5" x="257" y="296"/><g><path class="st0" d="M461.5,506H114.8V404.9h346.7V506z M127.9,492.9h320.5V418H127.9V492.9z"/></g><rect class="st4" height="53" id="XMLID_1_" width="298.6" x="138.9" y="428.9"/></g></g></g></g></svg>
