<?xml version="1.0" encoding="utf-8"?>
<!-- Generator: Adobe Illustrator 22.0.1, SVG Export Plug-In . SVG Version: 6.00 Build 0)  -->
<svg version="1.1" id="Layer_1" xmlns="http://www.w3.org/2000/svg" xmlns:xlink="http://www.w3.org/1999/xlink" x="0px" y="0px"
	 viewBox="0 0 55 55" style="enable-background:new 0 0 55 55;" xml:space="preserve">
<style type="text/css">
	.st0{fill:none;stroke:#E50053;stroke-width:0.5;stroke-miterlimit:10;}
	.st1{clip-path:url(#SVGID_2_);}
</style>
<path class="st0" d="M55,33.4"/>
<g>
	<g>
		<defs>
			<path id="SVGID_1_" d="M0.3,27.9c0-14.1,12.3-25.5,27.5-25.5c15.2,0,27.5,11.4,27.5,25.5C55.3,42,43,53.4,27.8,53.4
				C12.6,53.4,0.3,42,0.3,27.9"/>
		</defs>
		<clipPath id="SVGID_2_">
			<use xlink:href="#SVGID_1_"  style="overflow:visible;"/>
		</clipPath>
		<g class="st1">
			<defs>
				<path id="SVGID_3_" d="M27.8,2.4C12.6,2.4,0.3,13.8,0.3,27.9c0,14.1,12.3,25.5,27.5,25.5C43,53.4,55.3,42,55.3,27.9
					C55.3,13.8,43,2.4,27.8,2.4"/>
			</defs>
			<clipPath id="SVGID_4_">
				<use xlink:href="#SVGID_3_"  style="overflow:visible;"/>
			</clipPath>
			<g style="clip-path:url(#SVGID_4_);">

					<image style="overflow:visible;" width="195" height="195" xlink:href="18CF0B25.jpg"  transform="matrix(0.285 0 0 0.2642 0 2)">
				</image>
			</g>
		</g>
	</g>
</g>
</svg>
