<?xml version="1.0" encoding="utf-8"?>
<!-- Generator: Adobe Illustrator 22.0.1, SVG Export Plug-In . SVG Version: 6.00 Build 0)  -->
<svg version="1.1" id="Layer_1" xmlns="http://www.w3.org/2000/svg" xmlns:xlink="http://www.w3.org/1999/xlink" x="0px" y="0px"
	 viewBox="0 0 62.9 62.9" style="enable-background:new 0 0 62.9 62.9;" xml:space="preserve">
<style type="text/css">
	.st0{fill:none;}
	.st1{fill:#C39FF4;}
	.st2{opacity:0.1;fill:url(#SVGID_1_);}
</style>
<pattern  width="170.8" height="129.5" patternUnits="userSpaceOnUse" id="New_Pattern_2" viewBox="52 -130.3 170.8 129.5" style="overflow:visible;">
	<g>
		<rect x="52" y="-130.3" class="st0" width="170.8" height="129.5"/>
		<g>
			<path d="M307.7-87.8c0,11.7-3.8,23.3-11.5,31c-7.7,7.7-19.3,12.7-31,12.7c-11.7,0-20.5-7.9-28.1-15.6
				c-7.7-7.7-14.7-16.4-14.7-28.1s4.1-23.4,11.8-31c7.7-7.7,19.3-8.2,31-8.2c11.7,0,21.8,2.1,29.5,9.8
				C302.4-109.7,307.7-99.5,307.7-87.8z"/>
		</g>
		<g>
			<path d="M136.9-87.8c0,11.7-3.8,23.3-11.5,31s-19.3,12.7-31,12.7S73.9-52,66.3-59.7S51.6-76.1,51.6-87.8s4.1-23.4,11.8-31
				s19.3-8.2,31-8.2s21.8,2.1,29.5,9.8S136.9-99.5,136.9-87.8z"/>
			<path d="M223.2-26.2c0,14-11.8,26.2-25.8,26.2c-14,0-26.6-12.2-26.6-26.2s12.5-23.6,26.6-23.6C211.4-49.8,223.2-40.2,223.2-26.2z
				"/>
			<path d="M201.7-109.8c0-8.1-7.2-14.7-15.2-14.7s-15.7,6.7-15.7,14.7s7.6,14.5,15.7,14.5S201.7-101.8,201.7-109.8z"/>
		</g>
		<g>
			<path d="M52.4-26.2C52.4-12.2,40.6,0,26.6,0S0-12.2,0-26.2s12.5-23.6,26.6-23.6S52.4-40.2,52.4-26.2z"/>
		</g>
		<g>
			<path d="M223.2-155.7c0,14-11.8,26.2-25.8,26.2c-14,0-26.6-12.2-26.6-26.2c0-14,12.5-23.6,26.6-23.6
				C211.4-179.2,223.2-169.7,223.2-155.7z"/>
		</g>
		<g>
			<path d="M52.4-155.7c0,14-11.8,26.2-25.8,26.2S0-141.6,0-155.7c0-14,12.5-23.6,26.6-23.6S52.4-169.7,52.4-155.7z"/>
		</g>
	</g>
</pattern>
<g id="Base_Btn_13_">
	<path class="st1" d="M-0.4,48.4V13.6c0-7.7,6.3-14,14-14h34.9c7.7,0,14,6.3,14,14v34.9c0,7.7-6.3,14-14,14H13.6
		C5.8,62.4-0.4,56.2-0.4,48.4z"/>
	<pattern  id="SVGID_1_" xlink:href="#New_Pattern_2" patternTransform="matrix(1 0 0 1 -468.8022 784.9462)">
	</pattern>
	<path class="st2" d="M-0.4,48.4V13.6c0-7.7,6.3-14,14-14h34.9c7.7,0,14,6.3,14,14v34.9c0,7.7-6.3,14-14,14H13.6
		C5.8,62.4-0.4,56.2-0.4,48.4z"/>
</g>
</svg>
